<svg id="svg580643" xmlns="http://www.w3.org/2000/svg" viewBox="0 0 167.5 167.5"><circle cx="83.75" cy="83.75" r="83.75" fill="#2e3251"/><path d="M204.94,211.86v43.45a8.56,8.56,0,0,1-8.56,8.56H152.94a8.56,8.56,0,0,1-8.56-8.56V236.15a8.55,8.55,0,0,0-8.55-8.56H122.66A8.56,8.56,0,0,1,114.1,219V175.58a8.56,8.56,0,0,1,8.56-8.56h43.45a8.56,8.56,0,0,1,8.56,8.56v19.17a8.55,8.55,0,0,0,8.56,8.55h13.15A8.56,8.56,0,0,1,204.94,211.86Z" transform="translate(-75.77 -131.7)" fill="none" stroke="#fff" stroke-miterlimit="10" stroke-width="13" style="isolation:isolate"/></svg>