<svg id="svg580643" xmlns="http://www.w3.org/2000/svg" viewBox="0 0 666.87 135.8"><g id="title"><g id="path580652"><path d="M371.55,356.43v79.14h-17V356.43Zm18.09,0,14.69,79.14H386.25l-14.7-79.14Zm29.39,0h18.09l-14.7,79.14H404.33Zm18.09,0h17v79.14h-17V356.43Z" transform="translate(-177.32 -339.74)" fill="#fff"/></g><g id="path580654"><path d="M460.13,404.48c0-21,13-32.22,34.82-32.22,22.61,0,34.82,12.1,34.82,32.22v2.37h-53.7c.9,9.16,7.46,14.59,18.88,14.59,8.25,0,14.13-2.72,16.95-8.14H529c-3.39,15.26-15.6,23.4-34,23.4C472.34,436.7,460.13,424.6,460.13,404.48Zm51.66-9.16c-2.94-5-8.59-7.8-16.84-7.8-8,0-13.91,2.71-16.85,7.8Z" transform="translate(-177.32 -339.74)" fill="#fff"/></g><g id="path580656"><path d="M534.53,373.39h15.83v10.74c4.63-7.69,12.43-10.74,23.29-10.74h7V387h-7c-14.59,0-23.29,9.27-23.29,19v29.62H534.53Z" transform="translate(-177.32 -339.74)" fill="#fff"/></g><g id="path580658"><path d="M580.63,441H597.7c3.62,6.79,9,9.16,15,9.16,12.88,0,18.87-6.56,18.87-15.71v-6.22c-3.73,5.54-10.17,8.48-21.25,8.48-22.61,0-32.56-12.1-32.56-32.22,0-21,10.74-32.22,32.56-32.22,11.19,0,17.64,2.94,21.25,8.37v-7.24h15.83v65.23c0,14.7-14.81,26.79-34.7,26.79C597.7,465.41,584,458.18,580.63,441Zm32-19.55c12,0,19-5.88,19-17,0-10.63-6.67-17-19-17-12,0-19,5.88-19,17C593.63,415.11,600.3,421.44,612.62,421.44Z" transform="translate(-177.32 -339.74)" fill="#fff"/></g><g id="path580660"><path d="M652.43,404.48c0-21,13-32.22,34.82-32.22,22.61,0,34.82,12.1,34.82,32.22v2.37h-53.7c.9,9.16,7.46,14.59,18.88,14.59,8.25,0,14.13-2.72,17-8.14h17.07c-3.39,15.26-15.6,23.4-34,23.4C664.64,436.7,652.43,424.6,652.43,404.48Zm51.66-9.16c-2.94-5-8.59-7.8-16.84-7.8-8,0-13.91,2.71-16.85,7.8Z" transform="translate(-177.32 -339.74)" fill="#fff"/></g><g id="path580662"><path d="M771.67,364H755.05c-6.33,0-7.23,2.71-7.34,9.38h24V387h-24v48.61H731.88V387h-8.14V373.39h8.14c.34-14,4.18-23.51,22.72-23.51h17.07Z" transform="translate(-177.32 -339.74)" fill="#fff"/></g><g id="path580664"><path d="M808.8,435.57H792.29l-18.87-62.18h16.5Z" transform="translate(-177.32 -339.74)" fill="#fff"/><path d="M801.9,458.18l25.78-84.79h16.5l-25.77,84.79Z" transform="translate(-177.32 -339.74)" fill="#fff"/></g></g><path d="M299,403.1v55.09a10.86,10.86,0,0,1-10.85,10.86H233.07a10.86,10.86,0,0,1-10.86-10.86v-24.3A10.85,10.85,0,0,0,211.36,423H194.67a10.85,10.85,0,0,1-10.85-10.85V357.1a10.85,10.85,0,0,1,10.85-10.86h55.09a10.86,10.86,0,0,1,10.85,10.86v24.3a10.85,10.85,0,0,0,10.85,10.85h16.69A10.85,10.85,0,0,1,299,403.1Z" transform="translate(-177.32 -339.74)" fill="none" stroke="#fff" stroke-miterlimit="10" stroke-width="13" style="isolation:isolate"/></svg>